<?xml version="1.0" standalone="no"?>
<!DOCTYPE svg PUBLIC "-//W3C//DTD SVG 20010904//EN"
 "http://www.w3.org/TR/2001/REC-SVG-20010904/DTD/svg10.dtd">
<svg version="1.0" xmlns="http://www.w3.org/2000/svg"
 width="500.000000pt" height="500.000000pt" viewBox="0 0 500.000000 500.000000"
 preserveAspectRatio="xMidYMid meet">

<g transform="translate(0.000000,500.000000) scale(0.100000,-0.100000)"
fill="#000000" stroke="none">
<path d="M0 2500 l0 -2500 2500 0 2500 0 0 2500 0 2500 -2500 0 -2500 0 0
-2500z m2896 1408 c-12 -69 -46 -351 -61 -523 -10 -99 -18 -181 -20 -183 -7
-7 -176 -34 -182 -29 -3 4 2 77 12 162 9 86 15 158 13 160 -4 5 -118 -298
-118 -314 0 -8 -119 -21 -129 -14 -2 2 3 87 11 190 9 104 15 189 14 191 -2 1
-18 -53 -36 -120 -18 -68 -42 -152 -54 -188 l-21 -65 -85 -6 c-49 -4 -87 -3
-91 3 -4 5 -30 5 -70 -1 -83 -14 -80 -14 -75 12 3 12 8 50 11 85 l6 63 -42 -3
-43 -3 -21 -70 -21 -70 -87 -10 c-76 -10 -87 -9 -87 5 0 15 206 710 212 715 4
4 282 34 285 31 1 -1 -4 -132 -12 -292 -8 -159 -14 -298 -14 -309 1 -28 39 83
118 345 l68 225 107 9 c59 5 108 7 110 5 2 -2 -7 -78 -20 -169 -23 -163 -28
-221 -17 -190 3 8 37 94 75 191 l69 177 67 10 c37 5 82 10 101 11 32 1 33 0
27 -31z m404 17 c0 -20 -24 -113 -32 -122 -7 -8 -36 -13 -79 -13 -63 0 -69 -2
-74 -22 -36 -162 -39 -154 40 -150 l65 4 0 -30 c0 -16 -3 -43 -6 -60 -6 -29
-8 -30 -75 -37 -76 -8 -71 -3 -88 -99 -15 -84 -15 -89 12 -83 12 3 43 9 70 12
l47 7 0 -55 c0 -32 -5 -58 -12 -64 -12 -9 -280 -53 -319 -53 -15 0 -14 13 7
133 54 300 111 597 116 602 3 3 72 11 154 19 82 7 155 14 162 15 6 0 12 -1 12
-4z m-1454 -59 c-10 -90 -18 -103 -69 -110 l-44 -7 -21 -122 c-12 -67 -31
-185 -42 -262 -12 -77 -25 -149 -29 -161 -7 -17 -24 -23 -96 -33 -47 -7 -88
-12 -90 -10 -2 2 10 69 26 149 16 80 38 199 49 265 11 66 22 135 25 153 6 31
5 32 -32 32 -58 0 -62 7 -56 78 l6 62 106 1 c88 1 158 6 260 17 11 2 12 -9 7
-52z m1742 38 c106 -44 147 -170 107 -329 -57 -224 -240 -406 -425 -421 -36
-3 -70 -1 -77 3 -8 6 -1 62 28 213 22 113 52 277 68 365 l27 160 54 12 c80 16
175 15 218 -3z m-1795 -1408 c72 -30 101 -96 101 -226 -1 -161 -60 -313 -167
-426 -76 -81 -140 -117 -217 -122 -69 -4 -110 19 -142 80 -18 35 -22 60 -23
133 0 50 4 104 8 120 4 17 -8 -2 -28 -41 -62 -121 -152 -215 -255 -262 -62
-29 -210 -45 -210 -23 0 10 51 285 123 670 14 74 16 76 144 87 90 8 150 -7
194 -50 48 -47 62 -89 62 -186 l0 -85 43 85 c98 194 250 296 367 246z m1737
-77 l-13 -59 -66 0 c-36 0 -71 -4 -77 -8 -9 -5 -44 -141 -44 -167 0 -1 32 0
71 3 l72 5 -7 -49 c-12 -85 -10 -83 -84 -86 l-67 -3 -11 -50 c-6 -27 -13 -67
-17 -89 l-6 -38 32 6 c18 3 52 9 76 12 l44 7 -8 -59 c-3 -32 -10 -62 -13 -66
-4 -4 -66 -16 -137 -27 -72 -12 -145 -23 -162 -26 -27 -5 -33 -3 -33 11 0 15
-11 16 -117 11 -65 -3 -133 -11 -152 -16 -19 -6 -37 -9 -39 -7 -10 11 117 729
133 744 6 6 174 26 179 21 3 -2 -15 -90 -39 -196 -24 -105 -51 -231 -60 -280
-9 -48 -18 -98 -21 -110 -4 -22 -1 -23 51 -23 l55 0 1 -32 c3 -107 18 -55 77
264 35 189 66 346 70 350 11 11 316 35 321 25 2 -5 -2 -36 -9 -68z m740 73 c0
-4 -29 -84 -64 -177 -35 -94 -76 -209 -91 -256 l-28 -87 -60 -7 c-32 -3 -61
-4 -64 -1 -10 9 119 508 132 513 43 16 175 28 175 15z m-1950 -15 c0 -29 -24
-133 -33 -144 -5 -7 -22 -13 -38 -13 -54 0 -55 -3 -115 -388 -31 -198 -21
-183 -142 -199 -83 -11 -79 -17 -57 89 23 108 85 458 85 479 0 14 -7 19 -29
19 -56 0 -61 6 -61 81 l0 69 118 1 c98 1 159 5 260 17 6 1 12 -4 12 -11z m364
-14 c-3 -16 -10 -45 -15 -65 l-10 -38 -67 0 c-39 0 -75 -5 -84 -12 -13 -11
-38 -112 -38 -154 0 -6 30 -9 70 -8 70 2 70 2 70 -24 0 -15 -3 -44 -6 -64 l-6
-37 -76 -3 -76 -3 -23 -144 c-12 -79 -24 -145 -26 -147 -6 -6 -186 -42 -190
-37 -3 2 4 38 14 81 10 42 39 201 64 352 25 151 48 285 50 297 6 24 24 27 253
31 l102 2 -6 -27z m1234 0 c35 -26 56 -86 45 -133 -8 -31 -14 -37 -61 -52 -89
-29 -96 -28 -96 11 -1 44 -25 60 -62 41 -35 -19 -49 -51 -35 -79 7 -11 35 -38
64 -60 67 -50 86 -71 103 -118 49 -137 -28 -291 -167 -336 -99 -33 -179 -16
-242 51 l-28 29 37 75 37 75 49 -34 c28 -18 62 -33 77 -33 40 0 71 26 71 59 0
29 -15 46 -124 135 -86 70 -105 130 -67 211 33 70 99 125 194 161 77 30 163
28 205 -3z m-1062 -10 c-3 -16 -35 -181 -72 -368 -36 -187 -66 -340 -67 -341
-1 -1 -40 -6 -86 -10 l-84 -7 6 24 c11 51 125 626 132 665 6 42 6 42 63 52 31
5 70 10 85 11 26 1 28 -1 23 -26z m1179 -557 c78 -33 75 -140 -5 -181 -80 -42
-160 -1 -160 82 0 54 12 78 48 97 35 19 74 20 117 2z"/>
<path d="M2012 3630 c-23 -87 -42 -164 -42 -170 0 -8 60 -16 60 -7 0 1 7 76
15 166 8 91 13 166 11 168 -1 2 -21 -69 -44 -157z"/>
<path d="M3465 3756 c-4 -13 -74 -349 -81 -391 -3 -16 -8 -39 -11 -50 -11 -40
55 35 91 104 67 130 100 272 73 315 -17 25 -66 41 -72 22z"/>
<path d="M1140 2326 c0 -2 -18 -86 -39 -187 -22 -101 -42 -204 -46 -229 l-7
-45 27 25 c34 32 110 187 130 265 16 64 19 123 7 141 -13 20 -72 44 -72 30z"/>
<path d="M1655 2266 c-65 -29 -125 -128 -146 -241 -12 -66 0 -110 33 -121 90
-28 198 127 200 287 1 49 -3 65 -17 76 -23 16 -32 16 -70 -1z"/>
</g>
</svg>
