<?xml version="1.0" standalone="no"?>
<!DOCTYPE svg PUBLIC "-//W3C//DTD SVG 20010904//EN"
 "http://www.w3.org/TR/2001/REC-SVG-20010904/DTD/svg10.dtd">
<svg version="1.0" xmlns="http://www.w3.org/2000/svg"
 width="500.000000pt" height="500.000000pt" viewBox="0 0 500.000000 500.000000"
 preserveAspectRatio="xMidYMid meet">

<g transform="translate(0.000000,500.000000) scale(0.100000,-0.100000)"
fill="#000000" stroke="none">
<path d="M0 2500 l0 -2500 2500 0 2500 0 0 2500 0 2500 -2500 0 -2500 0 0
-2500z m2080 1238 c30 -10 71 -28 90 -38 53 -28 90 -41 90 -31 0 5 -11 12 -25
15 -14 4 -25 11 -25 16 0 29 249 -98 257 -131 3 -10 17 -26 31 -35 23 -15 25
-15 19 0 -11 29 10 17 65 -35 35 -33 44 -46 28 -39 -14 6 14 -26 61 -72 126
-121 234 -294 293 -469 14 -43 27 -94 28 -115 2 -22 6 -41 9 -44 4 -3 9 -36
13 -75 5 -49 4 -66 -3 -55 -9 12 -11 9 -11 -15 0 -41 -8 -272 -13 -370 -11
-216 -154 -484 -364 -685 -147 -142 -322 -242 -513 -296 -80 -22 -122 -27
-265 -31 -194 -6 -259 2 -412 53 -56 19 -109 34 -117 34 -19 0 -144 67 -171
91 -11 10 -62 50 -112 89 -51 39 -94 75 -94 80 -1 6 -2 15 -3 20 0 6 -4 9 -8
8 -11 -4 -118 104 -135 136 -8 16 -23 37 -32 48 -10 10 -24 31 -32 46 -7 15
-33 56 -57 91 -23 35 -42 71 -41 80 4 28 -13 85 -31 106 -22 26 -50 166 -50
253 1 75 14 68 25 -13 5 -36 4 -46 -4 -35 -9 13 -11 12 -10 -5 1 -11 5 -33 9
-50 l8 -30 1 35 c2 30 5 24 21 -36 19 -72 59 -168 67 -160 3 2 -1 15 -8 28 -7
12 -13 32 -15 44 -1 11 -10 52 -19 91 -13 54 -15 78 -6 108 11 39 3 74 -9 40
-4 -11 -7 24 -8 78 0 55 3 97 9 97 5 0 7 30 4 73 -3 42 -1 62 3 47 8 -25 8
-25 20 9 15 41 15 54 2 46 -15 -9 -12 13 6 40 10 15 13 32 9 46 -5 14 -4 19 4
15 6 -4 12 3 15 16 3 13 8 37 11 53 3 17 9 42 12 57 3 15 9 25 14 22 5 -3 14
8 21 23 7 15 24 45 39 65 14 20 32 52 39 70 7 18 20 41 28 51 8 9 12 20 9 23
-4 4 3 18 14 33 34 44 172 181 177 176 3 -2 -6 -13 -19 -24 -13 -11 -19 -20
-12 -21 7 0 36 28 64 63 29 34 58 61 64 59 7 -1 18 5 25 13 7 8 21 15 31 15
17 0 46 36 36 46 -2 2 -54 -29 -115 -70 -62 -40 -112 -71 -112 -69 0 9 58 55
93 74 21 11 35 24 32 29 -3 5 17 21 45 35 27 14 50 23 50 20 0 -7 62 26 70 37
11 14 57 26 71 17 18 -10 91 10 83 23 -3 4 1 8 8 8 9 0 9 3 -2 10 -11 7 -5 8
19 3 27 -5 32 -3 26 7 -6 9 -4 11 5 5 7 -4 15 -3 19 3 7 12 211 42 282 42 26
0 60 -5 75 -10 20 -8 29 -8 35 1 5 9 15 9 39 0 40 -13 50 -14 50 -2 0 5 -17
14 -37 20 -37 10 -37 10 12 5 27 -3 74 -15 105 -26z m-1100 -262 c0 -2 -8 -10
-17 -17 -16 -13 -17 -12 -4 4 13 16 21 21 21 13z m-20 -81 c-13 -14 -20 -25
-16 -25 5 0 3 -7 -4 -15 -7 -8 -16 -13 -20 -10 -5 3 -28 -16 -52 -42 -24 -27
-40 -44 -36 -38 17 20 7 27 -14 9 l-23 -19 19 22 c10 12 22 21 27 20 4 -1 34
26 66 61 32 34 63 62 68 62 4 0 -2 -11 -15 -25z m-165 -155 c-3 -5 -1 -10 5
-10 6 0 8 -4 5 -10 -3 -5 -8 -20 -10 -32 -3 -12 -9 -26 -14 -31 -9 -9 -8 6 4
68 4 26 4 25 11 25 3 0 2 -4 -1 -10z m-1 -105 c-7 -16 -24 -21 -24 -6 0 8 7
13 27 20 1 1 0 -6 -3 -14z m-74 -45 c-6 -11 -13 -20 -16 -20 -2 0 0 9 6 20 6
11 13 20 16 20 2 0 0 -9 -6 -20z m-34 -67 c-8 -15 -15 -21 -16 -13 0 13 -1 13
-10 0 -11 -17 -13 -9 -4 15 5 12 9 13 14 5 5 -9 10 -6 15 9 4 13 9 20 12 18 2
-3 -2 -18 -11 -34z m-79 -225 c-3 -8 -6 -5 -6 6 -1 11 2 17 5 13 3 -3 4 -12 1
-19z m-20 -100 c-3 -7 -5 -2 -5 12 0 14 2 19 5 13 2 -7 2 -19 0 -25z m-13
-140 l-9 -103 -5 70 c-3 39 -2 72 3 73 4 2 7 11 7 20 0 15 -2 15 -10 2 -8 -13
-10 -12 -10 3 0 9 5 17 10 17 6 0 10 8 10 17 0 9 3 14 6 10 3 -3 2 -52 -2
-109z m2659 -120 c17 -2 22 -10 22 -33 0 -25 -4 -30 -27 -33 -28 -3 -28 -2
-27 50 1 29 3 45 6 36 2 -9 14 -18 26 -20z m238 13 c20 -16 22 -23 14 -47 -8
-23 -17 -30 -43 -32 -32 -3 -32 -3 -32 41 0 62 18 73 61 38z m238 -19 c-14 -5
-11 -50 4 -55 7 -4 6 -6 -4 -6 -12 -1 -18 9 -21 33 -5 46 0 59 17 43 7 -7 9
-13 4 -15z m60 0 c-14 -5 -11 -50 4 -55 7 -4 6 -6 -4 -6 -12 -1 -18 9 -21 33
-5 46 0 59 17 43 7 -7 9 -13 4 -15z m-466 -18 l14 -27 7 27 c3 14 11 26 16 26
5 0 0 -22 -12 -50 -12 -30 -27 -50 -36 -50 -13 0 -13 2 2 13 16 11 16 15 1 50
-18 43 -12 50 8 11z m265 4 c2 -13 -3 -18 -17 -18 -28 0 -27 -17 2 -23 21 -4
21 -4 1 -6 -28 -1 -47 23 -39 49 8 26 48 24 53 -2z m87 -13 c0 -25 -4 -30 -25
-30 -16 0 -26 6 -28 18 -6 30 6 49 30 45 18 -2 23 -9 23 -33z m152 -17 c-2
-13 -4 -5 -4 17 -1 22 1 32 4 23 2 -10 2 -28 0 -40z m50 25 l10 -28 8 28 c4
15 11 27 16 27 5 0 3 -15 -4 -32 -7 -18 -17 -32 -22 -31 -11 2 -36 63 -26 63
4 0 12 -12 18 -27z m121 5 c2 -12 -5 -18 -25 -20 l-28 -4 25 -12 25 -12 -25 3
c-25 2 -37 25 -26 53 8 20 50 14 54 -8z m-3087 -805 c13 -16 12 -17 -3 -4 -10
7 -18 15 -18 17 0 8 8 3 21 -13z"/>
<path d="M1568 3603 c6 -2 18 -2 25 0 6 3 1 5 -13 5 -14 0 -19 -2 -12 -5z"/>
<path d="M1803 3583 c9 -2 25 -2 35 0 9 3 1 5 -18 5 -19 0 -27 -2 -17 -5z"/>
<path d="M1390 3560 c-13 -9 -13 -10 0 -10 8 0 22 5 30 10 13 9 13 10 0 10 -8
0 -22 -5 -30 -10z"/>
<path d="M1620 3553 c-94 -16 -290 -87 -276 -100 3 -3 13 -2 23 2 10 5 20 9
23 10 3 1 26 11 52 23 26 11 86 28 135 38 109 21 146 44 43 27z"/>
<path d="M1470 3540 c-13 -9 -13 -10 0 -10 8 0 22 5 30 10 13 9 13 10 0 10 -8
0 -22 -5 -30 -10z"/>
<path d="M1808 3543 c12 -2 30 -2 40 0 9 3 -1 5 -23 4 -22 0 -30 -2 -17 -4z"/>
<path d="M1278 3510 c-31 -16 -59 -34 -62 -39 -5 -7 118 53 133 66 15 12 -23
-2 -71 -27z"/>
<path d="M1295 3433 c-16 -9 -34 -22 -40 -28 -5 -7 -23 -15 -40 -19 l-30 -6
30 26 30 27 -35 -21 c-19 -12 -36 -26 -36 -32 -1 -5 -2 -15 -3 -21 0 -6 -8 -9
-16 -5 -8 3 -14 2 -13 -2 1 -4 -32 -41 -74 -83 -71 -72 -93 -110 -59 -104 9 2
18 4 21 4 2 1 -1 6 -7 12 -6 6 -9 18 -6 25 6 16 33 19 33 3 0 -5 5 -7 10 -4 6
3 10 11 10 16 0 6 -5 7 -11 3 -6 -3 -3 5 6 20 10 14 21 26 27 26 5 0 19 11 32
25 13 13 33 26 44 28 12 2 25 7 29 12 5 4 1 5 -7 1 -8 -4 -4 1 10 12 13 11 28
18 32 16 11 -7 79 41 71 49 -3 4 -2 7 4 7 6 0 13 7 17 15 7 18 8 18 -29 -2z"/>
<path d="M1098 3393 c-18 -15 -35 -29 -38 -31 -3 -3 1 -7 8 -9 6 -3 9 -10 6
-15 -4 -7 -2 -8 5 -4 6 4 9 11 6 16 -3 5 4 14 15 20 11 6 20 8 20 4 0 -4 9 3
20 16 24 27 24 30 6 30 -8 0 -29 -12 -48 -27z"/>
<path d="M1030 3335 c-7 -9 -10 -18 -7 -21 3 -3 10 4 17 15 13 25 8 27 -10 6z"/>
<path d="M885 3170 c-9 -16 -14 -30 -12 -30 2 0 13 14 25 30 13 17 18 30 13
30 -6 0 -17 -13 -26 -30z"/>
<path d="M965 3189 c-4 -6 -4 -13 -1 -16 3 -3 -4 -20 -15 -37 l-21 -31 24 27
c13 16 24 37 24 48 0 23 -2 24 -11 9z"/>
<path d="M791 3031 c-12 -22 -21 -49 -21 -59 0 -11 -7 -25 -15 -32 -8 -7 -15
-17 -15 -22 0 -26 31 19 55 79 29 74 27 96 -4 34z"/>
<path d="M874 2978 c-15 -18 -31 -32 -36 -30 -8 2 -22 -27 -38 -80 -5 -16 -5
-28 0 -28 4 0 10 10 14 23 5 19 8 20 17 7 8 -12 9 -8 5 15 -4 18 -3 25 2 17 6
-9 13 -2 25 25 9 21 24 48 33 61 25 34 10 26 -22 -10z"/>
<path d="M806 2985 c-9 -26 -7 -32 5 -12 6 10 9 21 6 23 -2 3 -7 -2 -11 -11z"/>
<path d="M870 2919 c-7 -11 -10 -23 -7 -25 2 -2 9 7 15 21 14 30 7 33 -8 4z"/>
<path d="M730 2876 c0 -31 6 -34 13 -6 3 11 1 23 -4 26 -5 3 -9 -6 -9 -20z"/>
<path d="M2910 2888 c0 -2 7 -27 16 -54 23 -69 36 -79 15 -11 -14 48 -31 82
-31 65z"/>
<path d="M710 2808 c0 -9 -7 -21 -15 -28 -16 -13 -21 -75 -6 -84 9 -6 36 113
27 122 -3 3 -6 -2 -6 -10z"/>
<path d="M777 2786 c-4 -9 -9 -39 -11 -68 -5 -52 -5 -52 8 12 14 63 15 87 3
56z"/>
<path d="M666 2462 c3 -62 10 -123 15 -135 7 -16 8 -4 3 38 -4 33 -10 94 -15
135 -6 62 -7 55 -3 -38z"/>
<path d="M741 2523 c-1 -24 1 -43 3 -43 8 0 12 48 5 66 -5 13 -8 7 -8 -23z"/>
<path d="M670 2016 c0 -21 42 -96 55 -96 20 0 19 4 -10 49 -22 36 -45 60 -45
47z"/>
<path d="M730 1881 c0 -5 7 -14 16 -22 8 -7 24 -29 34 -48 10 -20 29 -47 42
-60 37 -40 68 -83 63 -91 -3 -4 4 -15 15 -25 11 -10 20 -15 20 -10 0 4 7 2 15
-5 8 -7 12 -16 9 -21 -3 -5 2 -6 11 -3 13 6 6 18 -37 63 -60 62 -109 123 -151
189 -27 41 -37 51 -37 33z m181 -238 c13 -16 12 -17 -3 -4 -17 13 -22 21 -14
21 2 0 10 -8 17 -17z"/>
<path d="M3214 2415 c-7 -18 3 -35 22 -35 8 0 14 10 14 25 0 27 -27 35 -36 10z"/>
<path d="M3420 2415 c0 -28 4 -35 20 -35 23 0 39 26 33 51 -3 12 -14 19 -29
19 -21 0 -24 -5 -24 -35z"/>
<path d="M3530 2420 c0 -5 7 -10 15 -10 8 0 15 5 15 10 0 6 -7 10 -15 10 -8 0
-15 -4 -15 -10z"/>
<path d="M3612 2408 c2 -12 10 -23 18 -23 22 0 19 39 -3 43 -15 3 -18 -1 -15
-20z"/>
<path d="M3930 2420 c0 -5 7 -10 15 -10 8 0 15 5 15 10 0 6 -7 10 -15 10 -8 0
-15 -4 -15 -10z"/>
</g>
</svg>
